<svg xmlns="http://www.w3.org/2000/svg" class="ukr-map ukr-one w-on" data-key="UA-21" viewBox="-80 2415 1530 1248" width="244.8" height="199.7" role="img" aria-label="Закарпатська область"><path class="ukr-region" data-key="UA-21" pointer-events="fill" fill="#e3dfd5" stroke="#8a867b" stroke-width="7" stroke-linejoin="round" d="M465 2570l18 27-10 39 58 75 53-8 16 18 18 55 66 36 35-4 4 24 37 13 48 7 42 21 30 45 58 20-3 29 33 38 26 13 9 30-8 25 19 14 35-21 25-2 40-19 13 5-11 78 1 46 18 23 52 3 22-24 19 42 25 10 53 59 22 48-15 34 7 31 35 42 15 36-32 41-15 48-79-20-48 23-28-2-39 15-55-20-19-21-64-27-59 18-50-50-39-2-81-26-28 3-33 20-34-22-20-2-65-81-37-17-25 1-39 66-26 17-43-23-15 9-3 29-23 8-18-20 17-50-13-38-43-43-31 9-52-5-18-67-35-59-27 1-42-10-23-46 1-47-23-9 13-38-37-17-40 7 8-60 11-26-2-35 13-29 40-25 24-28 22-6 19-26 10-46 24-29 3-42 31-33 29-68 42-13 18-65 23-5 31 36 56 4 56 50 7-15Z"><title>Закарпатська область</title></path><g class="ukr-label"><circle class="ukr-dot" cx="113" cy="2861" r="19" fill="#26241f" stroke="#fdfdfb" stroke-width="9"/><text class="ukr-city" x="113" y="3001" text-anchor="start" font-family='"Ubuntu Condensed","Roboto Condensed","Arial Narrow","Liberation Sans Narrow",system-ui,sans-serif' font-size="110" fill="#26241f">Ужгород</text></g></svg>
