<svg xmlns="http://www.w3.org/2000/svg" class="ukr-map ukr-one w-on" data-key="UA-59" viewBox="5924 -76 1652 2041" width="264.3" height="326.6" role="img" aria-label="Сумська область"><path class="ukr-region" id="ukr-UA-59" data-key="UA-59" pointer-events="fill" fill="#e3dfd5" stroke="#8a867b" stroke-width="7" stroke-linejoin="round" d="M6076 1545l17-54 2-49 32-79-21-19-2-40 12-49 16-19 0-57-14-15 26-50-20-8-17 29-44-15 5-20-64-22 13-39-2-35 27-10 7-34 19-14 1-30-40-78 59 4 9-40-11-41 39-41-20-36 3-64-11-12 7-37-37-40-13-43 14-37 17-13 19-45 34-2 24-20 49-17 1-84 48-3 11-26-20-7-41-45-25-8-5-48 21-33 19-82 51 2-2 32 20 11 35-36 44-22 60-1 20 34 32 22 31 51 34 22 19 22 10 35-8 20 8 63 18 32-1 34 26-1 46 47 24 10 59 52 15 33 3 35-19 24-41 3-89 25-20 13 2 28 26 9 12 38 23 24 14 45-1 55-19 22 26 28 27 4 16 22-13 29-50 46 52 17 28-22 38-3 56 18 34-8 24 10 12 36 18 11 39 0 36-10 75-37 20 10 32-10 22 24 17 76 28 42 72-9 25 17-11 22-28 7 10 46 27 17 1 34 21 35 3 30 33 28 7 63 13 15-40 21-7 21 31 101 12 20 42 12 18 21 11 47 35 25 32-1-10 21-41-3-54 23-37-21-19 29-32-6-10 25-22-1-13 36-25 5-32-9-24 33-12-6-26 37-32 6-25 18-52-9-36 20-22-10-12 25-26 7-53-6-29 15-15-32 25-25-6-28-20-14-19-38-24 8-12-38 7-31-67-73-6-79-35 3-57 27-16 23-42-18-32-30-53 17 3 31-52 12-41-18-164-29-31-17-27 6-21 20-51-5-20-12Z"><title>Сумська область</title></path><clipPath id="ukr-clip-UA-59"><use href="#ukr-UA-59"/></clipPath><g class="ukr-water" clip-path="url(#ukr-clip-UA-59)"><g class="ukr-waterink"><g class="ukr-rivers"><path d="M4709 1501L4701 1542L4719 1611L4742 1652L4743 1704L4775 1745L4790 1791L4830 1856L4920 1915L4948 1962L4987 1999L5037 2011L5063 2031L5093 2031L5141 2003L5164 1997L5204 2007M5450 2382L5415 2375L5367 2318L5319 2304L5270 2268L5247 2235L5217 2212M6174 2760L6188 2767L6269 2775L6365 2833M6952 3184L7035 3213L7081 3243L7124 3236L7209 3244L7237 3259L7261 3314L7280 3330L7284 3382L7311 3429L7316 3462L7300 3497L7311 3536L7254 3539L7243 3564L7256 3590L7286 3619L7292 3645L7277 3682L7284 3714L7279 3778M6416 4660L6381 4654L6349 4665L6334 4689L6303 4713L6272 4719L6228 4701L6195 4703L6138 4735L6105 4729L5987 4792L5956 4797L5901 4823L5899 4833" fill="none" stroke="#5f96bb" stroke-width="32" stroke-linecap="round" stroke-linejoin="round"/></g></g></g><g class="ukr-label"><circle class="ukr-dot" cx="6995" cy="1205" r="19" fill="#26241f" stroke="#fdfdfb" stroke-width="9"/><text class="ukr-city" x="6995" y="1345" text-anchor="middle" font-family='"Ubuntu Condensed","Roboto Condensed","Arial Narrow","Liberation Sans Narrow",system-ui,sans-serif' font-size="110" fill="#26241f">Суми</text></g></svg>
